<mxfile host="app.diagrams.net" modified="2024-02-06T23:39:09.630Z" agent="Mozilla/5.0 (Windows NT 10.0; Win64; x64) AppleWebKit/537.36 (KHTML, like Gecko) Chrome/121.0.0.0 Safari/537.36" etag="AljFBMrRztnwgEycXoOp" version="23.1.1" type="device">
  <diagram id="C5RBs43oDa-KdzZeNtuy" name="Page-1">
    <mxGraphModel dx="794" dy="459" grid="1" gridSize="10" guides="1" tooltips="1" connect="1" arrows="1" fold="1" page="1" pageScale="1" pageWidth="827" pageHeight="1169" math="0" shadow="0">
      <root>
        <mxCell id="WIyWlLk6GJQsqaUBKTNV-0" />
        <mxCell id="WIyWlLk6GJQsqaUBKTNV-1" parent="WIyWlLk6GJQsqaUBKTNV-0" />
        <mxCell id="WIyWlLk6GJQsqaUBKTNV-3" value="データベース接続" style="rounded=1;whiteSpace=wrap;html=1;fontSize=12;glass=0;strokeWidth=1;shadow=0;" parent="WIyWlLk6GJQsqaUBKTNV-1" vertex="1">
          <mxGeometry x="160" y="80" width="120" height="40" as="geometry" />
        </mxCell>
        <mxCell id="WIyWlLk6GJQsqaUBKTNV-9" value="NO" style="edgeStyle=orthogonalEdgeStyle;rounded=0;html=1;jettySize=auto;orthogonalLoop=1;fontSize=11;endArrow=block;endFill=0;endSize=8;strokeWidth=1;shadow=0;labelBackgroundColor=none;" parent="WIyWlLk6GJQsqaUBKTNV-1" edge="1">
          <mxGeometry y="10" relative="1" as="geometry">
            <mxPoint as="offset" />
            <mxPoint x="395" y="849" as="targetPoint" />
            <Array as="points">
              <mxPoint x="525" y="493" />
            </Array>
            <mxPoint x="452" y="493" as="sourcePoint" />
          </mxGeometry>
        </mxCell>
        <mxCell id="h9rZooUtNr8oj8G2S-ER-3" value="" style="edgeStyle=orthogonalEdgeStyle;rounded=0;orthogonalLoop=1;jettySize=auto;html=1;" parent="WIyWlLk6GJQsqaUBKTNV-1" source="WIyWlLk6GJQsqaUBKTNV-11" edge="1">
          <mxGeometry relative="1" as="geometry">
            <mxPoint x="395" y="639" as="targetPoint" />
          </mxGeometry>
        </mxCell>
        <mxCell id="WIyWlLk6GJQsqaUBKTNV-11" value="検索条件に&lt;br&gt;都道府県を追加" style="rounded=1;whiteSpace=wrap;html=1;fontSize=12;glass=0;strokeWidth=1;shadow=0;" parent="WIyWlLk6GJQsqaUBKTNV-1" vertex="1">
          <mxGeometry x="335" y="569" width="120" height="40" as="geometry" />
        </mxCell>
        <mxCell id="h9rZooUtNr8oj8G2S-ER-1" value="" style="edgeStyle=orthogonalEdgeStyle;rounded=0;orthogonalLoop=1;jettySize=auto;html=1;" parent="WIyWlLk6GJQsqaUBKTNV-1" source="h9rZooUtNr8oj8G2S-ER-0" target="WIyWlLk6GJQsqaUBKTNV-3" edge="1">
          <mxGeometry relative="1" as="geometry">
            <Array as="points">
              <mxPoint x="230" y="80" />
              <mxPoint x="230" y="80" />
            </Array>
          </mxGeometry>
        </mxCell>
        <mxCell id="h9rZooUtNr8oj8G2S-ER-0" value="start" style="ellipse;whiteSpace=wrap;html=1;" parent="WIyWlLk6GJQsqaUBKTNV-1" vertex="1">
          <mxGeometry x="160" y="30" width="120" height="30" as="geometry" />
        </mxCell>
        <mxCell id="ytKObgBI_jLJxSGm0-5G-5" style="edgeStyle=orthogonalEdgeStyle;rounded=0;orthogonalLoop=1;jettySize=auto;html=1;exitX=0.5;exitY=1;exitDx=0;exitDy=0;entryX=0.5;entryY=0;entryDx=0;entryDy=0;" parent="WIyWlLk6GJQsqaUBKTNV-1" source="h9rZooUtNr8oj8G2S-ER-10" target="h9rZooUtNr8oj8G2S-ER-13" edge="1">
          <mxGeometry relative="1" as="geometry" />
        </mxCell>
        <mxCell id="h9rZooUtNr8oj8G2S-ER-10" value="検索条件に&lt;br&gt;滞在レベルを追加" style="whiteSpace=wrap;html=1;rounded=1;glass=0;strokeWidth=1;shadow=0;" parent="WIyWlLk6GJQsqaUBKTNV-1" vertex="1">
          <mxGeometry x="335" y="709" width="120" height="40" as="geometry" />
        </mxCell>
        <mxCell id="s13l2MW78z2p8p0Ib397-3" value="" style="edgeStyle=orthogonalEdgeStyle;rounded=0;orthogonalLoop=1;jettySize=auto;html=1;" parent="WIyWlLk6GJQsqaUBKTNV-1" source="h9rZooUtNr8oj8G2S-ER-13" target="s13l2MW78z2p8p0Ib397-2" edge="1">
          <mxGeometry relative="1" as="geometry" />
        </mxCell>
        <mxCell id="h9rZooUtNr8oj8G2S-ER-13" value="検索条件に&lt;br&gt;訪問日を追加" style="whiteSpace=wrap;html=1;rounded=1;glass=0;strokeWidth=1;shadow=0;" parent="WIyWlLk6GJQsqaUBKTNV-1" vertex="1">
          <mxGeometry x="335" y="779" width="120" height="40" as="geometry" />
        </mxCell>
        <mxCell id="s13l2MW78z2p8p0Ib397-2" value="B" style="ellipse;whiteSpace=wrap;html=1;rounded=1;glass=0;strokeWidth=1;shadow=0;" parent="WIyWlLk6GJQsqaUBKTNV-1" vertex="1">
          <mxGeometry x="375" y="859" width="40" height="40" as="geometry" />
        </mxCell>
        <mxCell id="echClZm6UsjZQWHw3Wsp-2" style="edgeStyle=orthogonalEdgeStyle;rounded=0;orthogonalLoop=1;jettySize=auto;html=1;exitX=0.5;exitY=1;exitDx=0;exitDy=0;entryX=0.5;entryY=0;entryDx=0;entryDy=0;" edge="1" parent="WIyWlLk6GJQsqaUBKTNV-1" source="s13l2MW78z2p8p0Ib397-4" target="echClZm6UsjZQWHw3Wsp-1">
          <mxGeometry relative="1" as="geometry" />
        </mxCell>
        <mxCell id="s13l2MW78z2p8p0Ib397-4" value="B" style="ellipse;whiteSpace=wrap;html=1;rounded=1;glass=0;strokeWidth=1;shadow=0;" parent="WIyWlLk6GJQsqaUBKTNV-1" vertex="1">
          <mxGeometry x="689" y="10" width="40" height="40" as="geometry" />
        </mxCell>
        <mxCell id="s13l2MW78z2p8p0Ib397-7" value="都道府県情報&lt;br&gt;の表示" style="rounded=1;whiteSpace=wrap;html=1;fontSize=12;glass=0;strokeWidth=1;shadow=0;" parent="WIyWlLk6GJQsqaUBKTNV-1" vertex="1">
          <mxGeometry x="649" y="540" width="120" height="40" as="geometry" />
        </mxCell>
        <mxCell id="s13l2MW78z2p8p0Ib397-11" value="件数が1件以上" style="rhombus;whiteSpace=wrap;html=1;shadow=0;fontFamily=Helvetica;fontSize=12;align=center;strokeWidth=1;spacing=6;spacingTop=-4;" parent="WIyWlLk6GJQsqaUBKTNV-1" vertex="1">
          <mxGeometry x="649" y="350" width="120" height="80" as="geometry" />
        </mxCell>
        <mxCell id="s13l2MW78z2p8p0Ib397-22" style="edgeStyle=orthogonalEdgeStyle;rounded=0;orthogonalLoop=1;jettySize=auto;html=1;exitX=0.5;exitY=1;exitDx=0;exitDy=0;exitPerimeter=0;entryX=0.5;entryY=0;entryDx=0;entryDy=0;" parent="WIyWlLk6GJQsqaUBKTNV-1" source="s13l2MW78z2p8p0Ib397-13" target="s13l2MW78z2p8p0Ib397-7" edge="1">
          <mxGeometry relative="1" as="geometry" />
        </mxCell>
        <mxCell id="s13l2MW78z2p8p0Ib397-13" value="都道府県取得結果を&lt;br&gt;1行ずつ読込&lt;br&gt;終端まで繰返" style="strokeWidth=2;html=1;shape=mxgraph.flowchart.loop_limit;whiteSpace=wrap;" parent="WIyWlLk6GJQsqaUBKTNV-1" vertex="1">
          <mxGeometry x="649" y="450" width="120" height="60" as="geometry" />
        </mxCell>
        <mxCell id="s13l2MW78z2p8p0Ib397-20" style="edgeStyle=orthogonalEdgeStyle;rounded=0;orthogonalLoop=1;jettySize=auto;html=1;exitX=0.5;exitY=0;exitDx=0;exitDy=0;exitPerimeter=0;entryX=0.5;entryY=0;entryDx=0;entryDy=0;" parent="WIyWlLk6GJQsqaUBKTNV-1" source="s13l2MW78z2p8p0Ib397-14" target="s13l2MW78z2p8p0Ib397-19" edge="1">
          <mxGeometry relative="1" as="geometry" />
        </mxCell>
        <mxCell id="s13l2MW78z2p8p0Ib397-14" value="" style="strokeWidth=2;html=1;shape=mxgraph.flowchart.loop_limit;whiteSpace=wrap;rotation=-180;" parent="WIyWlLk6GJQsqaUBKTNV-1" vertex="1">
          <mxGeometry x="649" y="600" width="120" height="60" as="geometry" />
        </mxCell>
        <mxCell id="s13l2MW78z2p8p0Ib397-17" style="edgeStyle=orthogonalEdgeStyle;rounded=0;orthogonalLoop=1;jettySize=auto;html=1;exitX=0.5;exitY=1;exitDx=0;exitDy=0;entryX=0.5;entryY=0;entryDx=0;entryDy=0;" parent="WIyWlLk6GJQsqaUBKTNV-1" source="s13l2MW78z2p8p0Ib397-15" target="s13l2MW78z2p8p0Ib397-11" edge="1">
          <mxGeometry relative="1" as="geometry" />
        </mxCell>
        <mxCell id="s13l2MW78z2p8p0Ib397-15" value="件数の表示" style="rounded=1;whiteSpace=wrap;html=1;fontSize=12;glass=0;strokeWidth=1;shadow=0;" parent="WIyWlLk6GJQsqaUBKTNV-1" vertex="1">
          <mxGeometry x="649" y="290" width="120" height="40" as="geometry" />
        </mxCell>
        <mxCell id="s13l2MW78z2p8p0Ib397-19" value="end" style="ellipse;whiteSpace=wrap;html=1;" parent="WIyWlLk6GJQsqaUBKTNV-1" vertex="1">
          <mxGeometry x="649" y="680" width="120" height="30" as="geometry" />
        </mxCell>
        <mxCell id="s13l2MW78z2p8p0Ib397-21" style="edgeStyle=orthogonalEdgeStyle;rounded=0;orthogonalLoop=1;jettySize=auto;html=1;exitX=0.5;exitY=1;exitDx=0;exitDy=0;entryX=0.5;entryY=1;entryDx=0;entryDy=0;entryPerimeter=0;" parent="WIyWlLk6GJQsqaUBKTNV-1" source="s13l2MW78z2p8p0Ib397-7" target="s13l2MW78z2p8p0Ib397-14" edge="1">
          <mxGeometry relative="1" as="geometry" />
        </mxCell>
        <mxCell id="s13l2MW78z2p8p0Ib397-24" value="NO" style="edgeStyle=orthogonalEdgeStyle;rounded=0;html=1;jettySize=auto;orthogonalLoop=1;fontSize=11;endArrow=block;endFill=0;endSize=8;strokeWidth=1;shadow=0;labelBackgroundColor=none;" parent="WIyWlLk6GJQsqaUBKTNV-1" edge="1">
          <mxGeometry x="-0.8095" y="14" relative="1" as="geometry">
            <mxPoint x="-4" y="-10" as="offset" />
            <mxPoint x="709" y="670" as="targetPoint" />
            <Array as="points">
              <mxPoint x="809" y="390" />
            </Array>
            <mxPoint x="769" y="390" as="sourcePoint" />
          </mxGeometry>
        </mxCell>
        <mxCell id="s13l2MW78z2p8p0Ib397-28" value="YES" style="edgeStyle=orthogonalEdgeStyle;rounded=0;orthogonalLoop=1;jettySize=auto;html=1;exitX=0.5;exitY=1;exitDx=0;exitDy=0;entryX=0.5;entryY=0;entryDx=0;entryDy=0;entryPerimeter=0;" parent="WIyWlLk6GJQsqaUBKTNV-1" source="s13l2MW78z2p8p0Ib397-11" target="s13l2MW78z2p8p0Ib397-13" edge="1">
          <mxGeometry y="20" relative="1" as="geometry">
            <mxPoint as="offset" />
          </mxGeometry>
        </mxCell>
        <mxCell id="WKHt31poT0Ce64Y8X5nI-7" style="edgeStyle=orthogonalEdgeStyle;rounded=0;orthogonalLoop=1;jettySize=auto;html=1;exitX=0.5;exitY=1;exitDx=0;exitDy=0;entryX=0.5;entryY=0;entryDx=0;entryDy=0;" parent="WIyWlLk6GJQsqaUBKTNV-1" source="WKHt31poT0Ce64Y8X5nI-4" target="WKHt31poT0Ce64Y8X5nI-5" edge="1">
          <mxGeometry relative="1" as="geometry" />
        </mxCell>
        <mxCell id="WKHt31poT0Ce64Y8X5nI-4" value="検索条件(都道府県)の&lt;br&gt;入力チェック" style="rounded=1;whiteSpace=wrap;html=1;fontSize=12;glass=0;strokeWidth=1;shadow=0;" parent="WIyWlLk6GJQsqaUBKTNV-1" vertex="1">
          <mxGeometry x="335" y="79" width="120" height="40" as="geometry" />
        </mxCell>
        <mxCell id="WKHt31poT0Ce64Y8X5nI-8" style="edgeStyle=orthogonalEdgeStyle;rounded=0;orthogonalLoop=1;jettySize=auto;html=1;exitX=0.5;exitY=1;exitDx=0;exitDy=0;entryX=0.5;entryY=0;entryDx=0;entryDy=0;" parent="WIyWlLk6GJQsqaUBKTNV-1" source="WKHt31poT0Ce64Y8X5nI-5" target="WKHt31poT0Ce64Y8X5nI-6" edge="1">
          <mxGeometry relative="1" as="geometry" />
        </mxCell>
        <mxCell id="WKHt31poT0Ce64Y8X5nI-5" value="検索条件(地方)の&lt;br&gt;入力チェック" style="rounded=1;whiteSpace=wrap;html=1;fontSize=12;glass=0;strokeWidth=1;shadow=0;" parent="WIyWlLk6GJQsqaUBKTNV-1" vertex="1">
          <mxGeometry x="335" y="145" width="120" height="40" as="geometry" />
        </mxCell>
        <mxCell id="ytKObgBI_jLJxSGm0-5G-7" style="edgeStyle=orthogonalEdgeStyle;rounded=0;orthogonalLoop=1;jettySize=auto;html=1;exitX=0.5;exitY=1;exitDx=0;exitDy=0;entryX=0.5;entryY=0;entryDx=0;entryDy=0;" parent="WIyWlLk6GJQsqaUBKTNV-1" source="WKHt31poT0Ce64Y8X5nI-6" target="ytKObgBI_jLJxSGm0-5G-6" edge="1">
          <mxGeometry relative="1" as="geometry" />
        </mxCell>
        <mxCell id="WKHt31poT0Ce64Y8X5nI-6" value="検索条件(滞在レベル)の入力チェック" style="rounded=1;whiteSpace=wrap;html=1;fontSize=12;glass=0;strokeWidth=1;shadow=0;" parent="WIyWlLk6GJQsqaUBKTNV-1" vertex="1">
          <mxGeometry x="335" y="215" width="120" height="40" as="geometry" />
        </mxCell>
        <mxCell id="WKHt31poT0Ce64Y8X5nI-9" value="入力チェックOK?" style="rhombus;whiteSpace=wrap;html=1;rounded=1;glass=0;strokeWidth=1;shadow=0;" parent="WIyWlLk6GJQsqaUBKTNV-1" vertex="1">
          <mxGeometry x="335" y="452" width="120" height="80" as="geometry" />
        </mxCell>
        <mxCell id="WKHt31poT0Ce64Y8X5nI-13" style="edgeStyle=orthogonalEdgeStyle;rounded=0;orthogonalLoop=1;jettySize=auto;html=1;exitX=0.5;exitY=1;exitDx=0;exitDy=0;entryX=0.5;entryY=0;entryDx=0;entryDy=0;" parent="WIyWlLk6GJQsqaUBKTNV-1" source="WKHt31poT0Ce64Y8X5nI-11" target="WKHt31poT0Ce64Y8X5nI-9" edge="1">
          <mxGeometry relative="1" as="geometry" />
        </mxCell>
        <mxCell id="WKHt31poT0Ce64Y8X5nI-11" value="検索条件(訪問日)&lt;br&gt;の入力チェック" style="rounded=1;whiteSpace=wrap;html=1;fontSize=12;glass=0;strokeWidth=1;shadow=0;" parent="WIyWlLk6GJQsqaUBKTNV-1" vertex="1">
          <mxGeometry x="336" y="385" width="120" height="40" as="geometry" />
        </mxCell>
        <mxCell id="WKHt31poT0Ce64Y8X5nI-15" value="" style="edgeStyle=orthogonalEdgeStyle;rounded=0;orthogonalLoop=1;jettySize=auto;html=1;" parent="WIyWlLk6GJQsqaUBKTNV-1" source="WKHt31poT0Ce64Y8X5nI-16" edge="1">
          <mxGeometry relative="1" as="geometry">
            <mxPoint x="395" y="709" as="targetPoint" />
          </mxGeometry>
        </mxCell>
        <mxCell id="WKHt31poT0Ce64Y8X5nI-16" value="検索条件に&lt;br&gt;地方を追加" style="rounded=1;whiteSpace=wrap;html=1;fontSize=12;glass=0;strokeWidth=1;shadow=0;" parent="WIyWlLk6GJQsqaUBKTNV-1" vertex="1">
          <mxGeometry x="335" y="639" width="120" height="40" as="geometry" />
        </mxCell>
        <mxCell id="WKHt31poT0Ce64Y8X5nI-20" style="edgeStyle=orthogonalEdgeStyle;rounded=0;orthogonalLoop=1;jettySize=auto;html=1;exitX=0.5;exitY=1;exitDx=0;exitDy=0;entryX=0.5;entryY=0;entryDx=0;entryDy=0;" parent="WIyWlLk6GJQsqaUBKTNV-1" source="WKHt31poT0Ce64Y8X5nI-18" target="s13l2MW78z2p8p0Ib397-15" edge="1">
          <mxGeometry relative="1" as="geometry" />
        </mxCell>
        <mxCell id="WKHt31poT0Ce64Y8X5nI-18" value="メッセージ表示" style="rounded=1;whiteSpace=wrap;html=1;fontSize=12;glass=0;strokeWidth=1;shadow=0;" parent="WIyWlLk6GJQsqaUBKTNV-1" vertex="1">
          <mxGeometry x="649" y="220" width="120" height="40" as="geometry" />
        </mxCell>
        <mxCell id="ytKObgBI_jLJxSGm0-5G-3" value="YES" style="edgeStyle=orthogonalEdgeStyle;rounded=0;orthogonalLoop=1;jettySize=auto;html=1;exitX=0.5;exitY=1;exitDx=0;exitDy=0;entryX=0.5;entryY=0;entryDx=0;entryDy=0;" parent="WIyWlLk6GJQsqaUBKTNV-1" target="WIyWlLk6GJQsqaUBKTNV-11" edge="1">
          <mxGeometry relative="1" as="geometry">
            <mxPoint x="395" y="532" as="sourcePoint" />
          </mxGeometry>
        </mxCell>
        <mxCell id="ytKObgBI_jLJxSGm0-5G-8" value="YES" style="edgeStyle=orthogonalEdgeStyle;rounded=0;orthogonalLoop=1;jettySize=auto;html=1;exitX=0.5;exitY=1;exitDx=0;exitDy=0;entryX=0.5;entryY=0;entryDx=0;entryDy=0;" parent="WIyWlLk6GJQsqaUBKTNV-1" source="ytKObgBI_jLJxSGm0-5G-6" target="WKHt31poT0Ce64Y8X5nI-11" edge="1">
          <mxGeometry relative="1" as="geometry" />
        </mxCell>
        <mxCell id="ytKObgBI_jLJxSGm0-5G-9" value="NO" style="edgeStyle=orthogonalEdgeStyle;rounded=0;orthogonalLoop=1;jettySize=auto;html=1;exitX=1;exitY=0.5;exitDx=0;exitDy=0;" parent="WIyWlLk6GJQsqaUBKTNV-1" source="ytKObgBI_jLJxSGm0-5G-6" edge="1">
          <mxGeometry relative="1" as="geometry">
            <mxPoint x="395" y="759" as="targetPoint" />
            <Array as="points">
              <mxPoint x="576" y="318" />
            </Array>
          </mxGeometry>
        </mxCell>
        <mxCell id="ytKObgBI_jLJxSGm0-5G-6" value="訪問日&lt;br&gt;が入力されている" style="rhombus;whiteSpace=wrap;html=1;rounded=1;glass=0;strokeWidth=1;shadow=0;" parent="WIyWlLk6GJQsqaUBKTNV-1" vertex="1">
          <mxGeometry x="335" y="276" width="120" height="84" as="geometry" />
        </mxCell>
        <mxCell id="ytKObgBI_jLJxSGm0-5G-10" value="地方以外が含まれていないか" style="shape=callout;whiteSpace=wrap;html=1;perimeter=calloutPerimeter;position2=0;size=30;position=0.1;fillColor=#f8cecc;strokeColor=#b85450;rounded=1;rotation=0;direction=south;" parent="WIyWlLk6GJQsqaUBKTNV-1" vertex="1">
          <mxGeometry x="455" y="154.5" width="170" height="44.5" as="geometry" />
        </mxCell>
        <mxCell id="ytKObgBI_jLJxSGm0-5G-12" value="都道府県以外が含まれていないか&lt;br&gt;地方が含まれていないか" style="shape=callout;whiteSpace=wrap;html=1;perimeter=calloutPerimeter;position2=0;size=30;position=0.1;fillColor=#f8cecc;strokeColor=#b85450;rounded=1;rotation=0;direction=south;" parent="WIyWlLk6GJQsqaUBKTNV-1" vertex="1">
          <mxGeometry x="455" y="94.5" width="170" height="44.5" as="geometry" />
        </mxCell>
        <mxCell id="ytKObgBI_jLJxSGm0-5G-13" value="滞在レベル以外が含まれていないか" style="shape=callout;whiteSpace=wrap;html=1;perimeter=calloutPerimeter;position2=0;size=30;position=0.1;fillColor=#f8cecc;strokeColor=#b85450;rounded=1;rotation=0;direction=south;" parent="WIyWlLk6GJQsqaUBKTNV-1" vertex="1">
          <mxGeometry x="455" y="224.5" width="170" height="44.5" as="geometry" />
        </mxCell>
        <mxCell id="xarFJbH8t3tPUQ2cAIag-0" value="日付として正しいか" style="shape=callout;whiteSpace=wrap;html=1;perimeter=calloutPerimeter;position2=0;size=30;position=0.1;fillColor=#f8cecc;strokeColor=#b85450;rounded=1;rotation=0;direction=south;" parent="WIyWlLk6GJQsqaUBKTNV-1" vertex="1">
          <mxGeometry x="455" y="404.5" width="170" height="44.5" as="geometry" />
        </mxCell>
        <mxCell id="echClZm6UsjZQWHw3Wsp-4" style="edgeStyle=orthogonalEdgeStyle;rounded=0;orthogonalLoop=1;jettySize=auto;html=1;exitX=0.5;exitY=1;exitDx=0;exitDy=0;entryX=0.5;entryY=0;entryDx=0;entryDy=0;" edge="1" parent="WIyWlLk6GJQsqaUBKTNV-1" source="echClZm6UsjZQWHw3Wsp-0" target="WKHt31poT0Ce64Y8X5nI-18">
          <mxGeometry relative="1" as="geometry" />
        </mxCell>
        <mxCell id="echClZm6UsjZQWHw3Wsp-0" value="記録情報&lt;br&gt;取得SQL実行" style="rounded=1;whiteSpace=wrap;html=1;fontSize=12;glass=0;strokeWidth=1;shadow=0;" vertex="1" parent="WIyWlLk6GJQsqaUBKTNV-1">
          <mxGeometry x="649" y="150" width="120" height="40" as="geometry" />
        </mxCell>
        <mxCell id="echClZm6UsjZQWHw3Wsp-3" style="edgeStyle=orthogonalEdgeStyle;rounded=0;orthogonalLoop=1;jettySize=auto;html=1;exitX=0.5;exitY=1;exitDx=0;exitDy=0;entryX=0.5;entryY=0;entryDx=0;entryDy=0;" edge="1" parent="WIyWlLk6GJQsqaUBKTNV-1" source="echClZm6UsjZQWHw3Wsp-1" target="echClZm6UsjZQWHw3Wsp-0">
          <mxGeometry relative="1" as="geometry" />
        </mxCell>
        <mxCell id="echClZm6UsjZQWHw3Wsp-1" value="件数取得SQL実行" style="rounded=1;whiteSpace=wrap;html=1;fontSize=12;glass=0;strokeWidth=1;shadow=0;" vertex="1" parent="WIyWlLk6GJQsqaUBKTNV-1">
          <mxGeometry x="649" y="80" width="120" height="40" as="geometry" />
        </mxCell>
        <mxCell id="echClZm6UsjZQWHw3Wsp-8" style="edgeStyle=orthogonalEdgeStyle;rounded=0;orthogonalLoop=1;jettySize=auto;html=1;exitX=0.5;exitY=1;exitDx=0;exitDy=0;" edge="1" parent="WIyWlLk6GJQsqaUBKTNV-1" source="echClZm6UsjZQWHw3Wsp-5" target="WKHt31poT0Ce64Y8X5nI-4">
          <mxGeometry relative="1" as="geometry" />
        </mxCell>
        <mxCell id="echClZm6UsjZQWHw3Wsp-5" value="A" style="ellipse;whiteSpace=wrap;html=1;rounded=1;glass=0;strokeWidth=1;shadow=0;" vertex="1" parent="WIyWlLk6GJQsqaUBKTNV-1">
          <mxGeometry x="374" y="10" width="40" height="40" as="geometry" />
        </mxCell>
        <mxCell id="echClZm6UsjZQWHw3Wsp-7" value="A" style="ellipse;whiteSpace=wrap;html=1;rounded=1;glass=0;strokeWidth=1;shadow=0;" vertex="1" parent="WIyWlLk6GJQsqaUBKTNV-1">
          <mxGeometry x="195" y="499" width="40" height="40" as="geometry" />
        </mxCell>
      </root>
    </mxGraphModel>
  </diagram>
</mxfile>
